<?xml version="1.0" encoding="utf-8"?>
<!-- Generator: Adobe Illustrator 16.0.0, SVG Export Plug-In . SVG Version: 6.00 Build 0)  -->
<!DOCTYPE svg PUBLIC "-//W3C//DTD SVG 1.1//EN" "http://www.w3.org/Graphics/SVG/1.1/DTD/svg11.dtd">
<svg version="1.1" xmlns="http://www.w3.org/2000/svg" xmlns:xlink="http://www.w3.org/1999/xlink" x="0px" y="0px"
	 width="285.964px" height="130.983px" viewBox="0 0 285.964 130.983" enable-background="new 0 0 285.964 130.983"
	 xml:space="preserve">
<g id="Layer_1" display="none">
	
		<image display="inline" overflow="visible" width="286" height="131" xlink:href="D2FA2292.jpg"  transform="matrix(0.9999 0 0 0.9999 0 0)">
	</image>
</g>
<g id="Layer_2" display="none">
	<polyline display="inline" fill="none" stroke="#000000" stroke-width="2" stroke-miterlimit="10" points="14,0 14,8 1,8 1,0 	"/>
	<polyline display="inline" fill="none" stroke="#000000" stroke-width="2" stroke-miterlimit="10" points="21,0 21,29 7,29 7,15 
		14,15 14,21 14,22 	"/>
	<polyline display="inline" fill="none" stroke="#000000" stroke-width="2" stroke-miterlimit="10" points="0,15 0,36 14,36 14,44 
		21,44 21,36 28,36 28,0 	"/>
	<polyline display="inline" fill="none" stroke="#000000" stroke-width="2" stroke-miterlimit="10" points="64,0 36,0 36,36 49,36 	
		"/>
	<polyline display="inline" fill="none" stroke="#000000" stroke-width="2" stroke-miterlimit="10" points="49,15 49,30 42,30 42,7 
		64,7 64,15 57,15 57,36 64,36 	"/>
	<polyline display="inline" fill="none" stroke="#000000" stroke-width="2" stroke-miterlimit="10" points="71,0 71,22 64,22 64,29 
		72,29 72,43 43,43 43,57 	"/>
	<polyline display="inline" fill="none" stroke="#000000" stroke-width="2" stroke-miterlimit="10" points="72,43 78,43 78,58 
		71,58 71,51 64,51 64,79 71,79 	"/>
	<polyline display="inline" fill="none" stroke="#000000" stroke-width="2" stroke-miterlimit="10" points="49,58 49,50 57,50 
		57,80 49,80 49,87 70,87 	"/>
	<polyline display="inline" fill="none" stroke="#000000" stroke-width="2" stroke-miterlimit="10" points="70,72 70,65 78,65 
		78,94 43,94 43,73 50,73 50,65 36,65 36,43 29,43 28,43 28,33 	"/>
	<polyline display="inline" fill="none" stroke="#000000" stroke-width="2" stroke-miterlimit="10" points="21,44 21,51 29,51 
		29,57 29,58 	"/>
	<polyline display="inline" fill="none" stroke="#000000" stroke-width="2" stroke-miterlimit="10" points="7,43 7,51 14,51 	"/>
	<polyline display="inline" fill="none" stroke="#000000" stroke-width="2" stroke-miterlimit="10" points="0,43 0,58 7,58 	"/>
	<polyline display="inline" fill="none" stroke="#000000" stroke-width="2" stroke-miterlimit="10" points="21,58 14,58 14,65 
		22,65 22,73 7,73 7,95 36,95 36,79 29,79 29,65 	"/>
	<polyline display="inline" fill="none" stroke="#000000" stroke-width="2" stroke-miterlimit="10" points="21,80 14,80 14,87 
		28,87 	"/>
	<polyline display="inline" fill="none" stroke="#000000" stroke-width="2" stroke-miterlimit="10" points="7,65 0,65 0,80 	"/>
	<polyline display="inline" fill="none" stroke="#000000" stroke-width="2" stroke-miterlimit="10" points="0,87 0,101 7,101 7,108 
		15,108 15,95 	"/>
	<polyline display="inline" fill="none" stroke="#000000" stroke-width="2" stroke-miterlimit="10" points="0,109 0,122 0,123 	"/>
	<polyline display="inline" fill="none" stroke="#000000" stroke-width="2" stroke-miterlimit="10" points="0,130 7,130 7,115 
		21,115 21,130 21,131 	"/>
	<line display="inline" fill="none" stroke="#000000" stroke-width="2" stroke-miterlimit="10" x1="14" y1="123" x2="14" y2="131"/>
	<line display="inline" fill="none" stroke="#000000" stroke-width="2" stroke-miterlimit="10" x1="43" y1="73" x2="29" y2="73"/>
	<polyline display="inline" fill="none" stroke="#000000" stroke-width="2" stroke-miterlimit="10" points="29,102 21,102 21,109 
		35,109 35,101 78,101 78,131 	"/>
	<polyline display="inline" fill="none" stroke="#000000" stroke-width="2" stroke-miterlimit="10" points="28,116 28,131 36,131 
		36,116 43,116 	"/>
	<line display="inline" fill="none" stroke="#000000" stroke-width="2" stroke-miterlimit="10" x1="42" y1="131" x2="42" y2="123"/>
	<polyline display="inline" fill="none" stroke="#000000" stroke-width="2" stroke-miterlimit="10" points="49,131 49,116 57,116 
		57,131 	"/>
	<polyline display="inline" fill="none" stroke="#000000" stroke-width="2" stroke-miterlimit="10" points="42,108 71,108 71,123 
		64,123 64,116 	"/>
	<polyline display="inline" fill="none" stroke="#000000" stroke-width="2" stroke-miterlimit="10" points="78,109 100,109 100,116 
		106,116 106,101 121,101 121,94 	"/>
	<polyline display="inline" fill="none" stroke="#000000" stroke-width="2" stroke-miterlimit="10" points="86,94 255,94 255,101 
		262,101 262,87 248,87 248,72 	"/>
	<polyline display="inline" fill="none" stroke="#000000" stroke-width="2" stroke-miterlimit="10" points="86,101 99,101 99,95 	
		"/>
	<polyline display="inline" fill="none" stroke="#000000" stroke-width="2" stroke-miterlimit="10" points="255,79 255,57 277,57 
		277,102 	"/>
	<polyline display="inline" fill="none" stroke="#000000" stroke-width="2" stroke-miterlimit="10" points="262,79 262,65 269,65 
		269,108 284,108 	"/>
	
		<line display="inline" fill="none" stroke="#000000" stroke-width="2" stroke-miterlimit="10" x1="283" y1="116" x2="276" y2="116"/>
	<polyline display="inline" fill="none" stroke="#000000" stroke-width="2" stroke-miterlimit="10" points="284,123 269,123 
		269,116 	"/>
	<polyline display="inline" fill="none" stroke="#000000" stroke-width="2" stroke-miterlimit="10" points="262,108 255,108 
		255,117 262,117 262,122 262,123 	"/>
	<polyline display="inline" fill="none" stroke="#000000" stroke-width="2" stroke-miterlimit="10" points="241,109 241,101 
		248,101 248,116 233,116 	"/>
	<polyline display="inline" fill="none" stroke="#000000" stroke-width="2" stroke-miterlimit="10" points="262,130 255,130 
		255,123 227,123 227,116 	"/>
	<polyline display="inline" fill="none" stroke="#000000" stroke-width="2" stroke-miterlimit="10" points="227,109 234,109 
		234,101 220,101 220,109 206,109 206,94 206,116 	"/>
	
		<line display="inline" fill="none" stroke="#000000" stroke-width="2" stroke-miterlimit="10" x1="213" y1="94" x2="213" y2="102"/>
	<polyline display="inline" fill="none" stroke="#000000" stroke-width="2" stroke-miterlimit="10" points="220,123 220,116 
		212,116 212,130 227,130 	"/>
	<polyline display="inline" fill="none" stroke="#000000" stroke-width="2" stroke-miterlimit="10" points="170,101 199,101 
		199,116 192,116 192,108 184,108 184,123 	"/>
	<polyline display="inline" fill="none" stroke="#000000" stroke-width="2" stroke-miterlimit="10" points="134,94 134,108 156,108 
		156,131 	"/>
	<polyline display="inline" fill="none" stroke="#000000" stroke-width="2" stroke-miterlimit="10" points="141,101 163,101 
		163,109 178,109 178,130 162,130 162,116 170,116 170,121 170,122 	"/>
	<polyline display="inline" fill="none" stroke="#000000" stroke-width="2" stroke-miterlimit="10" points="205,131 205,122 
		191,122 191,130 184,130 	"/>
	<polyline display="inline" fill="none" stroke="#000000" stroke-width="2" stroke-miterlimit="10" points="148,130 106,130 
		106,123 148,123 148,116 113,116 	"/>
	<polyline display="inline" fill="none" stroke="#000000" stroke-width="2" stroke-miterlimit="10" points="113,108 128,108 128,94 
			"/>
	<polyline display="inline" fill="none" stroke="#000000" stroke-width="2" stroke-miterlimit="10" points="99,123 92,123 92,116 
		85,116 85,129 85,131 	"/>
	<polyline display="inline" fill="none" stroke="#000000" stroke-width="2" stroke-miterlimit="10" points="92,0 92,7 77,7 77,36 
		85,36 85,15 92,15 92,29 92,30 	"/>
	<polyline display="inline" fill="none" stroke="#000000" stroke-width="2" stroke-miterlimit="10" points="99,0 99,23 198,23 
		198,36 241,36 241,59 233,59 226.421,65.54 233.921,73 241,73 241,93 	"/>
	<polyline display="inline" fill="none" stroke="#000000" stroke-width="2" stroke-miterlimit="10" points="106,0 106,15 113,15 
		113,0 	"/>
	<polyline display="inline" fill="none" stroke="#000000" stroke-width="2" stroke-miterlimit="10" points="120,0 120,15 142,15 
		142,8 148,8 148,0 	"/>
	<line display="inline" fill="none" stroke="#000000" stroke-width="2" stroke-miterlimit="10" x1="148" y1="8" x2="148" y2="23"/>
	<polyline display="inline" fill="none" stroke="#000000" stroke-width="2" stroke-miterlimit="10" points="135,0 135,7 127,7 
		127,0 	"/>
	<polyline display="inline" fill="none" stroke="#000000" stroke-width="2" stroke-miterlimit="10" points="163,0 163,8 156,8 
		156,22 	"/>
	<polyline display="inline" fill="none" stroke="#000000" stroke-width="2" stroke-miterlimit="10" points="163,15 170,15 170,0 
		198,0 	"/>
	<polyline display="inline" fill="none" stroke="#000000" stroke-width="2" stroke-miterlimit="10" points="183,0 183,16 177,16 
		177,7 	"/>
	<polyline display="inline" fill="none" stroke="#000000" stroke-width="2" stroke-miterlimit="10" points="199,7 190,7 190,15 
		206,15 206,0 	"/>
	<polyline display="inline" fill="none" stroke="#000000" stroke-width="2" stroke-miterlimit="10" points="219,0 219,8 213,8 
		213,22 205,22 205,29 	"/>
	<polyline display="inline" fill="none" stroke="#000000" stroke-width="2" stroke-miterlimit="10" points="226,0 226,16 220,16 
		220,29 212,29 	"/>
	<polyline display="inline" fill="none" stroke="#000000" stroke-width="2" stroke-miterlimit="10" points="227,36 227,22 234,22 
		234,0 	"/>
	<polyline display="inline" fill="none" stroke="#000000" stroke-width="2" stroke-miterlimit="10" points="241,0 241,29 234,29 	
		"/>
	<polyline display="inline" fill="none" stroke="#000000" stroke-width="2" stroke-miterlimit="10" points="241,29 247,29 247,65 
		234,65 	"/>
	<polyline display="inline" fill="none" stroke="#000000" stroke-width="2" stroke-miterlimit="10" points="269,0 269,8 247,8 
		247,22 255,22 255,51 277,51 277,29 269,29 269,15 261,15 261,36 270,36 270,44 262,44 	"/>
	<line display="inline" fill="none" stroke="#000000" stroke-width="2" stroke-miterlimit="10" x1="276" y1="0" x2="276" y2="22"/>
	<polyline display="inline" fill="none" stroke="#000000" stroke-width="2" stroke-miterlimit="10" points="85,36 85,44 99,44 
		99,52 95,52 95,62 101,62 	"/>
	<polyline display="inline" fill="none" stroke="#000000" stroke-width="2" stroke-miterlimit="10" points="85,51 88,51 88,80 
		84,80 84,87 99,87 99,80 95,80 95,69 114,69 114,80 110,80 	"/>
	<polyline display="inline" fill="none" stroke="#000000" stroke-width="2" stroke-miterlimit="10" points="110,94 110,87 124,87 
		124,80 120,80 120,51 124,51 124,44 109,44 109,51 113,51 113,62 108,62 	"/>
	<polyline display="inline" fill="none" stroke="#000000" stroke-width="2" stroke-miterlimit="10" points="92,36 99,36 99,29 
		107,29 107,37 124,37 124,29 113,29 	"/>
	<polyline display="inline" fill="none" stroke="#000000" stroke-width="2" stroke-miterlimit="10" points="145,29 131,29 131,51 
		135,51 135,80 131,80 131,87 134,87 	"/>
	<polyline display="inline" fill="none" stroke="#000000" stroke-width="2" stroke-miterlimit="10" points="142,87 146,87 146,79 
		141,79 141,50 146,50 146,44 138,44 	"/>
	<polyline display="inline" fill="none" stroke="#000000" stroke-width="2" stroke-miterlimit="10" points="138,36 170,36 170,44 	
		"/>
	<polyline display="inline" fill="none" stroke="#000000" stroke-width="2" stroke-miterlimit="10" points="152,36 152,29 177,29 
		177,44 192,44 192,51 188,51 188,87 180,87 162,55.827 162,80 167,80 167,88 161,88 	"/>
	<polyline display="inline" fill="none" stroke="#000000" stroke-width="2" stroke-miterlimit="10" points="152,94 152,80 156,80 
		156,50 152,50 152,43 165,43 182,73 182,51 177,51 	"/>
	
		<polyline display="inline" fill="none" stroke="#000000" stroke-width="2" stroke-linejoin="bevel" stroke-miterlimit="10" points="
		177,37 184,37 184,24 	"/>
	
		<line display="inline" fill="none" stroke="#000000" stroke-width="2" stroke-linejoin="bevel" stroke-miterlimit="10" x1="191" y1="29" x2="191" y2="37"/>
	<polyline display="inline" fill="none" stroke="#000000" stroke-width="2" stroke-miterlimit="10" points="198,44 215,44 215,51 
		209,51 209,80 215,80 215,87 198,87 198,80 204,80 204,51 198,51 	"/>
	<polyline display="inline" fill="none" stroke="#000000" stroke-width="2" stroke-miterlimit="10" points="240,44 219,44 219,51 
		222,51 208.875,64.125 	"/>
	
		<line display="inline" fill="none" stroke="#000000" stroke-width="2" stroke-miterlimit="10" x1="222.75" y1="80.375" x2="209.063" y2="66.688"/>
	<line display="inline" fill="none" stroke="#000000" stroke-width="2" stroke-miterlimit="10" x1="222" y1="87" x2="222" y2="80"/>
	<polyline display="inline" fill="none" stroke="#000000" stroke-width="2" stroke-miterlimit="10" points="231.625,51 
		216.52,66.105 231.02,80.605 	"/>
	<polyline display="inline" fill="none" stroke="#000000" stroke-width="2" stroke-miterlimit="10" points="222,87 234,87 234,94 	
		"/>
</g>
<g id="Layer_4">
	<rect width="286" height="131"/>
</g>
<g id="Layer_3">
	<polyline fill="none" stroke="#FFFFFF" stroke-miterlimit="10" points="13.5,0 13.5,8.5 0.5,8.5 0.5,0 	"/>
	<polyline fill="none" stroke="#FFFFFF" stroke-miterlimit="10" points="20.5,0 20.5,29.5 6.5,29.5 6.5,15.5 13.5,15.5 13.5,21 
		13.5,22 	"/>
	<polyline fill="none" stroke="#FFFFFF" stroke-miterlimit="10" points="-0.5,15 -0.5,36.5 13.5,36.5 13.5,44.5 20.5,44.5 
		20.5,36.5 27.5,36.5 27.5,0 	"/>
	<polyline fill="none" stroke="#FFFFFF" stroke-miterlimit="10" points="64,0.5 35.5,0.5 35.5,36.5 49,36.5 	"/>
	<polyline fill="none" stroke="#FFFFFF" stroke-miterlimit="10" points="48.5,15 48.5,30.5 41.5,30.5 41.5,7.5 63.5,7.5 63.5,15.5 
		56.5,15.5 56.5,36.5 64,36.5 	"/>
	<polyline fill="none" stroke="#FFFFFF" stroke-miterlimit="10" points="70.5,0 70.5,22.5 63.5,22.5 63.5,29.5 71.5,29.5 71.5,43.5 
		42.5,43.5 42.5,57 	"/>
	<polyline fill="none" stroke="#FFFFFF" stroke-miterlimit="10" points="72,43.5 77.5,43.5 77.5,58.5 70.5,58.5 70.5,51.5 
		63.5,51.5 63.5,79.5 71,79.5 	"/>
	<polyline fill="none" stroke="#FFFFFF" stroke-miterlimit="10" points="48.5,58 48.5,50.5 56.5,50.5 56.5,80.5 48.5,80.5 
		48.5,87.5 70,87.5 	"/>
	<polyline fill="none" stroke="#FFFFFF" stroke-miterlimit="10" points="69.5,72 69.5,65.5 77.5,65.5 77.5,94.5 42.5,94.5 
		42.5,73.5 49.5,73.5 49.5,65.5 35.5,65.5 35.5,43.5 29,43.5 27.5,43.5 27.5,33 	"/>
	<polyline fill="none" stroke="#FFFFFF" stroke-miterlimit="10" points="20.5,44 20.5,51.5 28.5,51.5 28.5,57 28.5,58 	"/>
	<polyline fill="none" stroke="#FFFFFF" stroke-miterlimit="10" points="6.5,43 6.5,51.5 14,51.5 	"/>
	<polyline fill="none" stroke="#FFFFFF" stroke-miterlimit="10" points="-0.5,43 -0.5,58.5 7,58.5 	"/>
	<polyline fill="none" stroke="#FFFFFF" stroke-miterlimit="10" points="21,58.5 13.5,58.5 13.5,65.5 21.5,65.5 21.5,73.5 6.5,73.5 
		6.5,95.5 35.5,95.5 35.5,79.5 28.5,79.5 28.5,65 	"/>
	<polyline fill="none" stroke="#FFFFFF" stroke-miterlimit="10" points="21,80.5 13.5,80.5 13.5,87.5 28,87.5 	"/>
	<polyline fill="none" stroke="#FFFFFF" stroke-miterlimit="10" points="7,65.5 -0.5,65.5 -0.5,80 	"/>
	<polyline fill="none" stroke="#FFFFFF" stroke-miterlimit="10" points="-0.5,87 -0.5,101.5 6.5,101.5 6.5,108.5 14.5,108.5 
		14.5,95 	"/>
	<polyline fill="none" stroke="#FFFFFF" stroke-miterlimit="10" points="-0.5,109 -0.5,122 -0.5,123 	"/>
	<polyline fill="none" stroke="#FFFFFF" stroke-miterlimit="10" points="0,130.5 6.5,130.5 6.5,115.5 20.5,115.5 20.5,130 20.5,131 
			"/>
	<line fill="none" stroke="#FFFFFF" stroke-miterlimit="10" x1="13.5" y1="123" x2="13.5" y2="131"/>
	<line fill="none" stroke="#FFFFFF" stroke-miterlimit="10" x1="43" y1="73.5" x2="29" y2="73.5"/>
	<polyline fill="none" stroke="#FFFFFF" stroke-miterlimit="10" points="29,102.5 20.5,102.5 20.5,109.5 34.5,109.5 34.5,101.5 
		77.5,101.5 77.5,131 	"/>
	<polyline fill="none" stroke="#FFFFFF" stroke-miterlimit="10" points="27.5,116 27.5,131.5 35.5,131.5 35.5,116.5 43,116.5 	"/>
	<line fill="none" stroke="#FFFFFF" stroke-miterlimit="10" x1="41.5" y1="131" x2="41.5" y2="123"/>
	<polyline fill="none" stroke="#FFFFFF" stroke-miterlimit="10" points="48.5,131 48.5,116.5 56.5,116.5 56.5,131 	"/>
	<polyline fill="none" stroke="#FFFFFF" stroke-miterlimit="10" points="42,108.5 70.5,108.5 70.5,123.5 63.5,123.5 63.5,116 	"/>
	<polyline fill="none" stroke="#FFFFFF" stroke-miterlimit="10" points="78,109.5 99.5,109.5 99.5,116.5 105.5,116.5 105.5,101.5 
		120.5,101.5 120.5,94 	"/>
	<polyline fill="none" stroke="#FFFFFF" stroke-miterlimit="10" points="86,94.5 254.5,94.5 254.5,101.5 261.5,101.5 261.5,87.5 
		247.5,87.5 247.5,72 	"/>
	<polyline fill="none" stroke="#FFFFFF" stroke-miterlimit="10" points="86,101.5 98.5,101.5 98.5,95 	"/>
	<polyline fill="none" stroke="#FFFFFF" stroke-miterlimit="10" points="254.5,79 254.5,57.5 276.5,57.5 276.5,102 	"/>
	<polyline fill="none" stroke="#FFFFFF" stroke-miterlimit="10" points="261.5,79 261.5,65.5 268.5,65.5 268.5,108.5 284,108.5 	"/>
	<line fill="none" stroke="#FFFFFF" stroke-miterlimit="10" x1="283" y1="116.5" x2="276" y2="116.5"/>
	<polyline fill="none" stroke="#FFFFFF" stroke-miterlimit="10" points="284,123.5 268.5,123.5 268.5,116 	"/>
	<polyline fill="none" stroke="#FFFFFF" stroke-miterlimit="10" points="262,108.5 254.5,108.5 254.5,117.5 261.5,117.5 261.5,122 
		261.5,123 	"/>
	<polyline fill="none" stroke="#FFFFFF" stroke-miterlimit="10" points="240.5,109 240.5,101.5 247.5,101.5 247.5,116.5 233,116.5 	
		"/>
	<polyline fill="none" stroke="#FFFFFF" stroke-miterlimit="10" points="262,130.5 254.5,130.5 254.5,123.5 226.5,123.5 226.5,116 	
		"/>
	<polyline fill="none" stroke="#FFFFFF" stroke-miterlimit="10" points="227,109.5 233.5,109.5 233.5,101.5 219.5,101.5 
		219.5,109.5 205.5,109.5 205.5,94 205.5,116 	"/>
	<line fill="none" stroke="#FFFFFF" stroke-miterlimit="10" x1="212.5" y1="94" x2="212.5" y2="102"/>
	<polyline fill="none" stroke="#FFFFFF" stroke-miterlimit="10" points="219.5,123 219.5,116.5 211.5,116.5 211.5,130.5 227,130.5 	
		"/>
	<polyline fill="none" stroke="#FFFFFF" stroke-miterlimit="10" points="170,101.5 198.5,101.5 198.5,116.5 191.5,116.5 
		191.5,108.5 183.5,108.5 183.5,123 	"/>
	<polyline fill="none" stroke="#FFFFFF" stroke-miterlimit="10" points="133.5,94 133.5,108.5 155.5,108.5 155.5,131 	"/>
	<polyline fill="none" stroke="#FFFFFF" stroke-miterlimit="10" points="141,101.5 162.5,101.5 162.5,109.5 177.5,109.5 
		177.5,130.5 161.5,130.5 161.5,116.5 169.5,116.5 169.5,121 169.5,122 	"/>
	<polyline fill="none" stroke="#FFFFFF" stroke-miterlimit="10" points="204.5,131 204.5,122.5 190.5,122.5 190.5,130.5 184,130.5 	
		"/>
	<polyline fill="none" stroke="#FFFFFF" stroke-miterlimit="10" points="148,130.5 105.5,130.5 105.5,123.5 147.5,123.5 
		147.5,116.5 113,116.5 	"/>
	<polyline fill="none" stroke="#FFFFFF" stroke-miterlimit="10" points="113,108.5 127.5,108.5 127.5,94 	"/>
	<polyline fill="none" stroke="#FFFFFF" stroke-miterlimit="10" points="99,123.5 91.5,123.5 91.5,116.5 84.5,116.5 84.5,129 
		84.5,131 	"/>
	<polyline fill="none" stroke="#FFFFFF" stroke-miterlimit="10" points="91.5,0 91.5,7.5 76.5,7.5 76.5,36.5 84.5,36.5 84.5,15.5 
		91.5,15.5 91.5,29 91.5,30 	"/>
	<polyline fill="none" stroke="#FFFFFF" stroke-miterlimit="10" points="98.5,0 98.5,23.5 197.5,23.5 197.5,36.5 240.5,36.5 
		240.5,59.5 233,59.5 226.421,66.04 233.921,73.5 240.5,73.5 240.5,93 	"/>
	<polyline fill="none" stroke="#FFFFFF" stroke-miterlimit="10" points="105.5,0 105.5,15.5 112.5,15.5 112.5,0 	"/>
	<polyline fill="none" stroke="#FFFFFF" stroke-miterlimit="10" points="119.5,0 119.5,15.5 141.5,15.5 141.5,8.5 147.5,8.5 
		147.5,0 	"/>
	<line fill="none" stroke="#FFFFFF" stroke-miterlimit="10" x1="147.5" y1="8" x2="147.5" y2="23"/>
	<polyline fill="none" stroke="#FFFFFF" stroke-miterlimit="10" points="134.5,0 134.5,7.5 126.5,7.5 126.5,0 	"/>
	<polyline fill="none" stroke="#FFFFFF" stroke-miterlimit="10" points="162.5,0 162.5,8.5 155.5,8.5 155.5,22 	"/>
	<polyline fill="none" stroke="#FFFFFF" stroke-miterlimit="10" points="163,15.5 169.5,15.5 169.5,0.5 198,0.5 	"/>
	<polyline fill="none" stroke="#FFFFFF" stroke-miterlimit="10" points="182.5,0 182.5,16.5 176.5,16.5 176.5,7 	"/>
	<polyline fill="none" stroke="#FFFFFF" stroke-miterlimit="10" points="199,7.5 189.5,7.5 189.5,15.5 205.5,15.5 205.5,0 	"/>
	<polyline fill="none" stroke="#FFFFFF" stroke-miterlimit="10" points="218.5,0 218.5,8.5 212.5,8.5 212.5,22.5 204.5,22.5 
		204.5,29 	"/>
	<polyline fill="none" stroke="#FFFFFF" stroke-miterlimit="10" points="225.5,0 225.5,16.5 219.5,16.5 219.5,29.5 212,29.5 	"/>
	<polyline fill="none" stroke="#FFFFFF" stroke-miterlimit="10" points="226.5,36 226.5,22.5 233.5,22.5 233.5,0 	"/>
	<polyline fill="none" stroke="#FFFFFF" stroke-miterlimit="10" points="240.5,0 240.5,29.5 234,29.5 	"/>
	<polyline fill="none" stroke="#FFFFFF" stroke-miterlimit="10" points="241,29.5 246.5,29.5 246.5,65.5 234,65.5 	"/>
	<polyline fill="none" stroke="#FFFFFF" stroke-miterlimit="10" points="268.5,0 268.5,8.5 246.5,8.5 246.5,22.5 254.5,22.5 
		254.5,51.5 276.5,51.5 276.5,29.5 268.5,29.5 268.5,15.5 260.5,15.5 260.5,36.5 269.5,36.5 269.5,44.5 262,44.5 	"/>
	<line fill="none" stroke="#FFFFFF" stroke-miterlimit="10" x1="275.5" y1="0" x2="275.5" y2="22"/>
	<polyline fill="none" stroke="#FFFFFF" stroke-miterlimit="10" points="84.5,36 84.5,44.5 98.5,44.5 98.5,52.5 94.5,52.5 
		94.5,62.5 101,62.5 	"/>
	<polyline fill="none" stroke="#FFFFFF" stroke-miterlimit="10" points="85,51.5 87.5,51.5 87.5,80.5 83.5,80.5 83.5,87.5 
		98.5,87.5 98.5,80.5 94.5,80.5 94.5,69.5 113.5,69.5 113.5,80.5 110,80.5 	"/>
	<polyline fill="none" stroke="#FFFFFF" stroke-miterlimit="10" points="109.5,94 109.5,87.5 123.5,87.5 123.5,80.5 119.5,80.5 
		119.5,51.5 123.5,51.5 123.5,44.5 108.5,44.5 108.5,51.5 112.5,51.5 112.5,62.5 108,62.5 	"/>
	<polyline fill="none" stroke="#FFFFFF" stroke-miterlimit="10" points="92,36.5 98.5,36.5 98.5,29.5 106.5,29.5 106.5,37.5 
		123.5,37.5 123.5,29.5 113,29.5 	"/>
	<polyline fill="none" stroke="#FFFFFF" stroke-miterlimit="10" points="145,29.5 130.5,29.5 130.5,51.5 134.5,51.5 134.5,80.5 
		130.5,80.5 130.5,87.5 134,87.5 	"/>
	<polyline fill="none" stroke="#FFFFFF" stroke-miterlimit="10" points="142,87.5 145.5,87.5 145.5,79.5 140.5,79.5 140.5,50.5 
		145.5,50.5 145.5,44.5 138,44.5 	"/>
	<polyline fill="none" stroke="#FFFFFF" stroke-miterlimit="10" points="138,36.5 169.5,36.5 169.5,44 	"/>
	<polyline fill="none" stroke="#FFFFFF" stroke-miterlimit="10" points="151.5,36 151.5,29.5 176.5,29.5 176.5,44.5 191.5,44.5 
		191.5,51.5 187.5,51.5 187.5,87.5 180,87.5 161.5,55.827 161.5,80.5 166.5,80.5 166.5,88.5 161,88.5 	"/>
	<polyline fill="none" stroke="#FFFFFF" stroke-miterlimit="10" points="151.5,94 151.5,80.5 155.5,80.5 155.5,50.5 151.5,50.5 
		151.5,43.5 165,43.5 181.5,73 181.5,51.5 177,51.5 	"/>
	<polyline fill="none" stroke="#FFFFFF" stroke-linejoin="bevel" stroke-miterlimit="10" points="177,37.5 183.5,37.5 183.5,24 	"/>
	<line fill="none" stroke="#FFFFFF" stroke-linejoin="bevel" stroke-miterlimit="10" x1="190.5" y1="29" x2="190.5" y2="37"/>
	<polyline fill="none" stroke="#FFFFFF" stroke-miterlimit="10" points="198,44.5 214.5,44.5 214.5,51.5 208.5,51.5 208.5,80.5 
		214.5,80.5 214.5,87.5 197.5,87.5 197.5,80.5 203.5,80.5 203.5,51.5 198,51.5 	"/>
	<polyline fill="none" stroke="#FFFFFF" stroke-miterlimit="10" points="240,44.5 218.5,44.5 218.5,51.5 222,51.5 208.875,64.625 	
		"/>
	<line fill="none" stroke="#FFFFFF" stroke-miterlimit="10" x1="222.75" y1="80.375" x2="209.063" y2="66.688"/>
	<line fill="none" stroke="#FFFFFF" stroke-miterlimit="10" x1="221.5" y1="87" x2="221.5" y2="80"/>
	<polyline fill="none" stroke="#FFFFFF" stroke-miterlimit="10" points="231.625,51 216.52,66.105 231.02,80.605 	"/>
	<polyline fill="none" stroke="#FFFFFF" stroke-miterlimit="10" points="222,87.5 233.5,87.5 233.5,94 	"/>
</g>
</svg>
